Coordinates
version=1
nRows=37
nColumns=38
inDegrees=no

Units are S.I. units (second, meters, Newtons, ...)
If the header above contains a line with 'inDegrees', this indicates whether rotational values are in degrees (yes) or radians (no).

endheader
time	pelvis_tilt	pelvis_list	pelvis_rotation	pelvis_tx	pelvis_ty	pelvis_tz	hip_flexion_r	hip_adduction_r	hip_rotation_r	knee_angle_r	ankle_angle_r	subtalar_angle_r	mtp_angle_r	hip_flexion_l	hip_adduction_l	hip_rotation_l	knee_angle_l	ankle_angle_l	subtalar_angle_l	mtp_angle_l	lumbar_extension	lumbar_bending	lumbar_rotation	arm_flex_r	arm_add_r	arm_rot_r	elbow_flex_r	pro_sup_r	wrist_flex_r	wrist_dev_r	arm_flex_l	arm_add_l	arm_rot_l	elbow_flex_l	pro_sup_l	wrist_flex_l	wrist_dev_l
0	2.99108	1.22975	-1.44307	0.544657	-0.301591	0.954936	-0.447157	0.0331341	-0.256585	0.362167	-0.1231	0	0	0.0765678	-0.209585	-0.475406	0.772059	-0.191392	0	0	-0.482783	0.0639823	-0.00755699	-0.279081	-0.22909	-0.335139	0.820109	0.429908	0	0	-0.146872	-0.360302	0.269828	0.824718	1.32454	0	0
0.01	2.98974	1.23472	-1.44034	0.544318	-0.291702	0.953207	-0.456109	0.0342743	-0.252876	0.355616	-0.119693	0	0	0.0814775	-0.198186	-0.481642	0.706074	-0.18889	0	0	-0.478691	0.0643142	-0.0091544	-0.277822	-0.234624	-0.324132	0.821355	0.421071	0	0	-0.149453	-0.35869	0.267623	0.817536	1.32327	0	0
0.02	2.98497	1.24215	-1.43332	0.543815	-0.281777	0.951147	-0.460464	0.0359097	-0.250528	0.354773	-0.114237	0	0	0.0887717	-0.187213	-0.483863	0.638442	-0.188494	0	0	-0.471982	0.0656923	-0.0111691	-0.2753	-0.2391	-0.316105	0.820944	0.411638	0	0	-0.152115	-0.356777	0.26447	0.810318	1.32409	0	0
0.03	2.97733	1.25369	-1.42176	0.543024	-0.271864	0.948665	-0.458656	0.0376235	-0.249966	0.359516	-0.105224	0	0	0.0999185	-0.173634	-0.473965	0.566773	-0.189643	0	0	-0.460792	0.0680674	-0.0145625	-0.272257	-0.243524	-0.308579	0.818856	0.401422	0	0	-0.154072	-0.353746	0.260478	0.801358	1.32758	0	0
0.04	2.96711	1.26772	-1.40651	0.542057	-0.261909	0.94592	-0.453468	0.0394606	-0.251136	0.366811	-0.0945403	0	0	0.111688	-0.157249	-0.45167	0.490512	-0.190739	0	0	-0.446941	0.070866	-0.0189186	-0.269354	-0.24774	-0.301474	0.815782	0.393557	0	0	-0.15555	-0.350813	0.256792	0.791878	1.33214	0	0
0.05	2.95478	1.28311	-1.38909	0.540933	-0.251906	0.943083	-0.445338	0.0407139	-0.25286	0.376961	-0.0832822	0	0	0.12164	-0.138861	-0.420446	0.41144	-0.192189	0	0	-0.431323	0.073751	-0.0238108	-0.265169	-0.251745	-0.29505	0.810277	0.385087	0	0	-0.157184	-0.347109	0.251826	0.78142	1.33804	0	0
0.06	2.94214	1.29684	-1.37215	0.539731	-0.241808	0.940424	-0.437733	0.0413013	-0.253995	0.388123	-0.0746836	0	0	0.125701	-0.119865	-0.38647	0.331772	-0.194549	0	0	-0.417473	0.0761432	-0.0276086	-0.261406	-0.255875	-0.289046	0.804533	0.378644	0	0	-0.159259	-0.34337	0.246135	0.772191	1.34532	0	0
0.07	2.92995	1.30847	-1.35661	0.538537	-0.231416	0.937964	-0.430833	0.0407046	-0.256248	0.402327	-0.068508	0	0	0.125298	-0.103134	-0.358094	0.258158	-0.198607	0	0	-0.405379	0.078129	-0.0306969	-0.257639	-0.259254	-0.285155	0.798234	0.372071	0	0	-0.162132	-0.339446	0.239262	0.763698	1.35183	0	0
0.08	2.91729	1.3192	-1.34223	0.537514	-0.22074	0.935613	-0.423909	0.0392185	-0.257775	0.419029	-0.06309	0	0	0.123442	-0.0896872	-0.336291	0.193641	-0.203992	0	0	-0.393896	0.0793466	-0.0320254	-0.255468	-0.262678	-0.281041	0.792501	0.367015	0	0	-0.16531	-0.335608	0.231763	0.755803	1.35418	0	0
0.09	2.90488	1.32808	-1.32903	0.536704	-0.209944	0.933484	-0.418181	0.0376584	-0.257932	0.437005	-0.058602	0	0	0.120551	-0.0798688	-0.316917	0.140876	-0.210954	0	0	-0.384309	0.0798645	-0.0313261	-0.255244	-0.26592	-0.276659	0.787904	0.364103	0	0	-0.168151	-0.333147	0.226474	0.748943	1.35647	0	0
0.1	2.89329	1.33511	-1.31741	0.536088	-0.199042	0.931614	-0.4132	0.0357362	-0.257132	0.456805	-0.0557123	0	0	0.117564	-0.0737102	-0.298552	0.103787	-0.221506	0	0	-0.376563	0.0799317	-0.029736	-0.255143	-0.268241	-0.273416	0.783404	0.360534	0	0	-0.170974	-0.331171	0.221203	0.742655	1.35827	0	0
0.11	2.97019	1.38654	-1.41373	0.536778	-0.187848	0.925146	-0.244704	-0.0422359	-0.317103	0.782446	0.0271277	0	0	0.16151	-0.0419793	-0.304007	0.0928076	-0.234534	0	0	-0.322819	0.0449362	-0.0185581	-0.256061	-0.268556	-0.265702	0.768775	0.356647	0	0	-0.180106	-0.330439	0.214162	0.733416	1.36396	0	0
0.12	2.94691	1.37504	-1.38825	0.536252	-0.176317	0.925752	-0.290745	-0.0263787	-0.30186	0.721742	0.00979706	0	0	0.147626	-0.0493042	-0.306396	0.107465	-0.236449	0	0	-0.333428	0.0503615	-0.0175631	-0.254556	-0.269518	-0.263548	0.763143	0.354653	0	0	-0.181791	-0.330009	0.210657	0.728016	1.36489	0	0
0.13	2.917	1.32173	-1.35004	0.535965	-0.164531	0.930566	-0.448377	0.0257304	-0.239428	0.482807	-0.0758514	0	0	0.0892823	-0.0727738	-0.321361	0.135826	-0.235961	0	0	-0.390604	0.0680868	-0.0173923	-0.256943	-0.269872	-0.264175	0.773557	0.348365	0	0	-0.184337	-0.334413	0.206405	0.737409	1.36604	0	0
0.14	2.92678	1.31579	-1.36135	0.535314	-0.152617	0.930379	-0.462233	0.0220711	-0.231575	0.488428	-0.0918391	0	0	0.0825581	-0.073808	-0.335319	0.175405	-0.231097	0	0	-0.396504	0.0651301	-0.0135904	-0.262072	-0.269451	-0.266406	0.775761	0.344976	0	0	-0.188714	-0.336212	0.205334	0.737581	1.36584	0	0
0.15	2.93758	1.3116	-1.3738	0.534523	-0.1403	0.930232	-0.473087	0.0170642	-0.22234	0.497201	-0.107497	0	0	0.0762935	-0.0732529	-0.350739	0.211314	-0.223015	0	0	-0.399157	0.0615082	-0.01041	-0.267301	-0.268741	-0.269014	0.775794	0.342262	0	0	-0.193124	-0.337177	0.204072	0.735312	1.36455	0	0
0.16	2.94994	1.30918	-1.38684	0.533561	-0.127812	0.930185	-0.480218	0.0115458	-0.212365	0.509667	-0.122936	0	0	0.0690099	-0.0690051	-0.359065	0.230775	-0.224582	0	0	-0.399195	0.057445	-0.00857662	-0.271974	-0.267878	-0.271027	0.773396	0.341337	0	0	-0.197446	-0.338016	0.20331	0.731659	1.36353	0	0
0.17	2.96298	1.30825	-1.39915	0.532481	-0.115276	0.930312	-0.483638	0.00631099	-0.201398	0.525662	-0.140819	0	0	0.0621449	-0.0631495	-0.36328	0.239026	-0.239354	0	0	-0.397367	0.0534056	-0.00838164	-0.275843	-0.266674	-0.272487	0.768994	0.341804	0	0	-0.200955	-0.338502	0.202632	0.726352	1.36237	0	0
0.18	2.97654	1.30867	-1.41081	0.531298	-0.102659	0.93061	-0.483393	0.00107191	-0.189854	0.545286	-0.162823	0	0	0.0555995	-0.0572893	-0.366248	0.242319	-0.268021	0	0	-0.393655	0.0490192	-0.0099294	-0.278521	-0.264982	-0.273453	0.762136	0.343778	0	0	-0.203669	-0.338741	0.201972	0.719281	1.36122	0	0
0.19	2.98958	1.30994	-1.42121	0.529948	-0.0899207	0.931005	-0.479728	-0.00450529	-0.179004	0.569008	-0.186441	0	0	0.0494108	-0.0524035	-0.370007	0.246409	-0.298668	0	0	-0.38869	0.0450962	-0.0126634	-0.281276	-0.263373	-0.274278	0.755226	0.346927	0	0	-0.206968	-0.338827	0.201131	0.712446	1.36162	0	0
0.2	2.99991	1.31157	-1.4281	0.52837	-0.0770531	0.931392	-0.472865	-0.0100545	-0.169474	0.597334	-0.213138	0	0	0.0442667	-0.0495425	-0.375201	0.254393	-0.324224	0	0	-0.383042	0.0426337	-0.0158844	-0.285079	-0.26183	-0.276378	0.749936	0.35013	0	0	-0.211202	-0.338901	0.200656	0.706918	1.36592	0	0
0.21	3.00531	1.31356	-1.42924	0.526549	-0.0640477	0.931706	-0.462563	-0.0152381	-0.161211	0.630811	-0.243491	0	0	0.0408646	-0.0494069	-0.380703	0.267844	-0.338184	0	0	-0.376769	0.0423855	-0.019544	-0.291017	-0.260666	-0.280208	0.748033	0.353385	0	0	-0.215495	-0.338072	0.199197	0.702314	1.36924	0	0
0.22	3.00806	1.31488	-1.42687	0.52451	-0.0510371	0.932068	-0.449448	-0.0206265	-0.154767	0.669662	-0.278354	0	0	0.0378052	-0.0508615	-0.384618	0.286269	-0.338063	0	0	-0.370894	0.0437735	-0.0240062	-0.298158	-0.259969	-0.284924	0.748788	0.35675	0	0	-0.219312	-0.336929	0.198151	0.698289	1.37124	0	0
0.23	3.01392	1.31472	-1.42707	0.522393	-0.038212	0.932638	-0.433718	-0.0276294	-0.151131	0.714029	-0.318405	0	0	0.0330985	-0.0519371	-0.387218	0.306619	-0.329142	0	0	-0.366904	0.0451158	-0.0293079	-0.305058	-0.259485	-0.28963	0.750925	0.360409	0	0	-0.221754	-0.336194	0.198923	0.694476	1.37211	0	0
0.24	3.02842	1.31321	-1.43571	0.520311	-0.0257155	0.93352	-0.415703	-0.0373519	-0.149362	0.76187	-0.36533	0	0	0.0255151	-0.0503458	-0.389058	0.325042	-0.316669	0	0	-0.365004	0.0444581	-0.0356033	-0.310355	-0.258776	-0.293939	0.752685	0.364487	0	0	-0.22243	-0.336385	0.202477	0.69032	1.37244	0	0
0.25	3.05288	1.31133	-1.45439	0.518338	-0.0136145	0.934665	-0.394644	-0.0497539	-0.147774	0.811571	-0.423191	0	0	0.0152859	-0.0449531	-0.389966	0.338926	-0.303138	0	0	-0.364226	0.0409671	-0.0429498	-0.313381	-0.257043	-0.299042	0.753195	0.369326	0	0	-0.221107	-0.337622	0.208169	0.685813	1.3688	0	0
0.26	3.08422	1.30829	-1.47985	0.516525	-0.00188803	0.93601	-0.371474	-0.0636888	-0.146167	0.863631	-0.479189	0	0	0.0010059	-0.0363914	-0.389633	0.346232	-0.292477	0	0	-0.365437	0.0353907	-0.0514684	-0.314741	-0.254724	-0.303547	0.753619	0.374691	0	0	-0.218877	-0.340537	0.215692	0.683203	1.36139	0	0
0.27	3.11655	1.3039	-1.50638	0.514846	0.00954378	0.93741	-0.347315	-0.0773278	-0.143523	0.917429	-0.522245	0	0	-0.0173867	-0.0266128	-0.389029	0.347582	-0.283986	0	0	-0.368682	0.029321	-0.0601537	-0.31604	-0.252383	-0.307503	0.755799	0.379269	0	0	-0.216673	-0.345109	0.225034	0.683683	1.35661	0	0
0.28	-3.13785	1.29966	-1.52986	0.513223	0.0207495	0.938701	-0.321586	-0.0892549	-0.137996	0.970947	-0.555438	0	0	-0.0377654	-0.0170217	-0.388539	0.34467	-0.275041	0	0	-0.371899	0.0241483	-0.0682412	-0.318118	-0.250451	-0.311618	0.760034	0.384217	0	0	-0.213217	-0.350041	0.236481	0.685	1.35236	0	0
0.29	-3.11476	1.29595	-1.54838	0.511639	0.0317041	0.93985	-0.293772	-0.0993557	-0.131252	1.02437	-0.577665	0	0	-0.0588083	-0.00869186	-0.388782	0.339331	-0.266607	0	0	-0.374776	0.0204084	-0.0753013	-0.320613	-0.249208	-0.31538	0.765571	0.387874	0	0	-0.208885	-0.355231	0.249682	0.687168	1.35376	0	0
0.3	-3.09904	1.29434	-1.56025	0.5101	0.0423109	0.940858	-0.261369	-0.107232	-0.12431	1.07842	-0.594143	0	0	-0.0773846	-0.00249497	-0.388852	0.333509	-0.257754	0	0	-0.375977	0.0188285	-0.0810565	-0.322761	-0.248187	-0.319778	0.771165	0.39086	0	0	-0.201729	-0.35969	0.264407	0.687957	1.35523	0	0
0.31	-3.0924	1.2967	-1.56211	0.508579	0.0524264	0.941667	-0.222508	-0.111779	-0.11911	1.13245	-0.597383	0	0	-0.0896956	0.000263968	-0.386133	0.329668	-0.248183	0	0	-0.373525	0.020472	-0.0861357	-0.324232	-0.24679	-0.325884	0.775478	0.394064	0	0	-0.190283	-0.363328	0.282129	0.685441	1.35368	0	0
0.32	-3.09478	1.30151	-1.55535	0.507196	0.062273	0.942485	-0.180138	-0.113201	-0.114356	1.18371	-0.578284	0	0	-0.098365	-0.000360566	-0.3821	0.325941	-0.239994	0	0	-0.368384	0.024593	-0.0900862	-0.324142	-0.244953	-0.333506	0.777094	0.397293	0	0	-0.175651	-0.366188	0.302831	0.679995	1.34871	0	0
0.33	-3.10372	1.30688	-1.54233	0.505913	0.0719035	0.943436	-0.137335	-0.112439	-0.110413	1.23044	-0.541054	0	0	-0.106259	-0.00292537	-0.376151	0.320063	-0.234702	0	0	-0.362611	0.0303054	-0.0930994	-0.322681	-0.242892	-0.341793	0.776465	0.400538	0	0	-0.159126	-0.368598	0.325522	0.673008	1.34631	0	0
0.34	-3.11742	1.3112	-1.52443	0.504663	0.0813539	0.944585	-0.0963244	-0.110151	-0.108277	1.27194	-0.50341	0	0	-0.115613	-0.00657909	-0.36914	0.311457	-0.232617	0	0	-0.35846	0.0371283	-0.0967035	-0.320466	-0.242479	-0.345796	0.775087	0.404425	0	0	-0.142884	-0.369584	0.343173	0.66671	1.3489	0	0
0.35	-3.13358	1.31603	-1.50414	0.503441	0.0907229	0.945762	-0.0548012	-0.10718	-0.106824	1.30904	-0.468596	0	0	-0.124859	-0.0103078	-0.361959	0.301145	-0.231575	0	0	-0.35365	0.044498	-0.100267	-0.318458	-0.243376	-0.346551	0.772951	0.40925	0	0	-0.125936	-0.368923	0.357818	0.659488	1.35383	0	0
0.36	3.13247	1.32101	-1.48292	0.50226	0.100055	0.946918	-0.0132985	-0.104186	-0.106149	1.34055	-0.441639	0	0	-0.134574	-0.0136684	-0.355427	0.289903	-0.230584	0	0	-0.348517	0.0520018	-0.103969	-0.316884	-0.244992	-0.345398	0.77091	0.414019	0	0	-0.10901	-0.366937	0.368852	0.652612	1.35952	0	0
